<svg version="1.1" xmlns="http://www.w3.org/2000/svg" width="48" height="48">
<path d="M0 0 C15.84 0 31.68 0 48 0 C48 15.84 48 31.68 48 48 C32.16 48 16.32 48 0 48 C0 32.16 0 16.32 0 0 Z " fill="#F76833" transform="translate(0,0)"/>
<path d="M0 0 C3.67563264 1.74425476 5.45963496 2.73632744 7.7734375 6.20703125 C7.7734375 7.52703125 7.7734375 8.84703125 7.7734375 10.20703125 C6.4946875 10.26890625 5.2159375 10.33078125 3.8984375 10.39453125 C3.17914063 10.42933594 2.45984375 10.46414062 1.71875 10.5 C1.07679687 10.40332031 0.43484375 10.30664062 -0.2265625 10.20703125 C-0.8865625 9.21703125 -1.5465625 8.22703125 -2.2265625 7.20703125 C-5.68406199 6.54026247 -5.68406199 6.54026247 -9.2265625 7.20703125 C-11.4681567 9.07695708 -11.4681567 9.07695708 -12.2265625 12.20703125 C-12.25312485 15.28826398 -12.00651643 18.22209479 -11.2265625 21.20703125 C-9.34280575 23.5318691 -9.34280575 23.5318691 -6.2265625 23.39453125 C-3.30269647 23.40782734 -3.30269647 23.40782734 -1.2265625 22.20703125 C-0.09305716 20.19033298 -0.09305716 20.19033298 0.7734375 18.20703125 C3.4134375 18.20703125 6.0534375 18.20703125 8.7734375 18.20703125 C7.56839145 24.3527661 5.92972468 26.62919933 0.7734375 30.20703125 C-2.95708817 31.45053981 -6.35208293 31.72901996 -10.2265625 31.20703125 C-15.04078362 28.79992069 -17.98960736 26.11112522 -20.2265625 21.20703125 C-21.00954472 15.9691502 -21.52058755 10.69489877 -19.015625 5.87890625 C-13.9891341 -0.19370712 -7.70306169 -2.74337109 0 0 Z " fill="#FBF8F7" transform="translate(30.2265625,8.79296875)"/>
<path d="M0 0 C0.66 0 1.32 0 2 0 C1.90276381 4.08391981 1.00447569 6.50332575 -1.8125 9.375 C-6.64944192 13.26074413 -12.10863795 12.52238678 -18 12 C-18 11.67 -18 11.34 -18 11 C-16.89591797 10.85304688 -16.89591797 10.85304688 -15.76953125 10.703125 C-8.0584186 9.61422261 -8.0584186 9.61422261 -2 5 C-0.66701026 2.38181544 -0.66701026 2.38181544 0 0 Z " fill="#4A3C36" transform="translate(38,29)"/>
<path d="M0 0 C1.60875 0.185625 1.60875 0.185625 3.25 0.375 C3.58 1.035 3.91 1.695 4.25 2.375 C3.13625 2.478125 2.0225 2.58125 0.875 2.6875 C-0.32125 2.914375 -1.5175 3.14125 -2.75 3.375 C-4.68395001 6.27592502 -5.05131941 7.27174737 -5.375 10.5625 C-5.49875 11.820625 -5.6225 13.07875 -5.75 14.375 C-7.75 12.375 -7.75 12.375 -8.125 9.625 C-7.47406858 3.98359436 -5.89878557 0.58987856 0 0 Z " fill="#5B4A44" transform="translate(24.75,14.625)"/>
<path d="M0 0 C0.66 0 1.32 0 2 0 C1.38461538 5.53846154 1.38461538 5.53846154 -0.5625 7.875 C-1.2740625 8.431875 -1.2740625 8.431875 -2 9 C-2.99 8.67 -3.98 8.34 -5 8 C-4.360625 7.236875 -3.72125 6.47375 -3.0625 5.6875 C-0.85767219 3.11753287 -0.85767219 3.11753287 0 0 Z " fill="#4F4541" transform="translate(38,29)"/>
</svg>