<svg xmlns="http://www.w3.org/2000/svg" width="24" height="24" viewBox="0 0 24 24"><path fill="#797979" d="M22 8.51v1.372h-2.538c.02-.223.038-.448.038-.681 0-.237-.017-.464-.035-.69h2.535zm-10.648-6.553v-1.957h1.371v1.964c-.242-.022-.484-.035-.726-.035-.215 0-.43.01-.645.028zm5.521 1.544l1.57-1.743 1.019.918-1.603 1.777c-.25-.297-.593-.672-.986-.952zm-10.738.952l-1.603-1.777 1.019-.918 1.57 1.743c-.392.28-.736.655-.986.952zm-1.597 5.429h-2.538v-1.372h2.535c-.018.226-.035.454-.035.691 0 .233.018.458.038.681zm9.462 9.118h-4c-.276 0-.5.224-.5.5s.224.5.5.5h4c.276 0 .5-.224.5-.5s-.224-.5-.5-.5zm0 2h-4c-.276 0-.5.224-.5.5s.224.5.5.5h4c.276 0 .5-.224.5-.5s-.224-.5-.5-.5zm.25 2h-4.5l1.188.782c.154.138.38.218.615.218h.895c.234 0 .461-.08.615-.218l1.187-.782zm3.75-13.799c0 3.569-3.214 5.983-3.214 8.799h-1.989c-.003-1.858.87-3.389 1.721-4.867.761-1.325 1.482-2.577 1.482-3.932 0-2.592-2.075-3.772-4.003-3.772-1.925 0-3.997 1.18-3.997 3.772 0 1.355.721 2.607 1.482 3.932.851 1.478 1.725 3.009 1.72 4.867h-1.988c0-2.816-3.214-5.23-3.214-8.799 0-3.723 2.998-5.772 5.997-5.772 3.001 0 6.003 2.051 6.003 5.772z"/></svg>