<svg xmlns="http://www.w3.org/2000/svg" xml:space="preserve" width="202" height="35" style="shape-rendering:geometricPrecision;text-rendering:geometricPrecision;image-rendering:optimizeQuality;fill-rule:evenodd;clip-rule:evenodd" viewBox="0 0 1250 216.67"><defs><style>.fil0{fill:#2b2a29}.fil1{fill:#fefefe;fill-rule:nonzero}</style></defs><g id="Layer_x0020_1"><path d="M0 63.3h502.81v153.37H0z" class="fil0"/><path d="M50.51 111.62h16.84c7.68 0 13.48 3.51 13.48 12.67 0 8.75-5.53 11.99-13.48 11.99H50.51v-24.66zm-25.05 76.12h25.05v-32.06h20.62c21.15 0 34.76-9.3 34.76-33.14 0-22.77-16.84-30.99-34.76-30.99H25.46v96.19zm113.1-76.12h19.94c7 0 12.66 3.24 12.66 10.38 0 7.41-4.04 11.31-11.58 11.31h-21.02v-21.69zm-25.06 76.12h25.06v-35.03h19c11.85 0 13.33 9.97 14.01 19.67.4 2.83.67 12 2.83 15.36h24.79c-3.37-3.77-3.64-17.51-4.05-21.69-.67-9.16-3.9-20.48-14.01-23.04v-.27c10.24-3.9 15.09-13.74 15.09-24.11 0-19.4-16.84-27.08-33.68-27.08H113.5v96.19zm176.15-96.19H264.6v57.93c0 12.4-4.45 18.73-16.85 18.73-12.39 0-16.84-6.33-16.84-18.73V91.55h-25.06V148c0 27.89 12.8 41.76 41.9 41.76 29.11 0 41.9-13.87 41.9-41.76V91.55zm6.94 63.86c0 24.65 19.81 34.35 41.77 34.35 21.15 0 41.9-7.81 41.9-32.19 0-17.38-14.01-23.85-27.89-27.76-14.01-3.91-27.89-5.12-27.89-12.66 0-6.34 6.74-8.22 12.13-8.22 7.54 0 15.89 2.96 15.49 11.59h25.06c0-21.56-19.54-30.99-38.53-30.99-18.06 0-39.21 8.22-39.21 29.23 0 17.79 14.55 23.85 28.16 27.76 13.88 3.9 27.62 5.39 27.62 14.01 0 7.14-7.82 9.83-15.36 9.83-10.78 0-17.65-3.63-18.19-14.95h-25.06zm81.31 32.33h25.73l6.06-17.24h33.55l5.93 17.24h26.14l-35.98-96.19h-25.46l-35.97 96.19zm48.5-69.52h.27l10.64 33.69h-21.82l10.91-33.69z" class="fil1"/><path d="M523.44 63.3h715.63v153.37H523.44z" class="fil0"/><path d="M643.75 125.9c-.67-23.17-23.04-36.37-43.92-36.37-29.24 0-47.96 22.23-47.96 50.12 0 27.88 18.72 50.11 47.96 50.11 24.39 0 42.44-14.41 43.92-39.34h-25.06c-.94 11.19-7.54 17.79-19.4 17.79-16.16 0-22.36-14.15-22.36-28.56 0-14.42 6.2-28.57 22.36-28.57 10.65 0 17.92 5.12 19.4 14.82h25.06zm30.52 13.75c0-14.42 6.19-28.57 22.36-28.57 16.17 0 22.37 14.15 22.37 28.57 0 14.41-6.2 28.56-22.37 28.56s-22.36-14.15-22.36-28.56zm-25.06 0c0 27.88 17.24 50.11 47.42 50.11 30.18 0 47.43-22.23 47.43-50.11 0-27.89-17.25-50.12-47.43-50.12s-47.42 22.23-47.42 50.12zm103.94 48.09h23.58v-59.95h.27l33.41 59.95h25.73V91.55h-23.58v59.28h-.27l-33.41-59.28h-25.73v96.19zm95.59 0h23.57v-59.95h.27L906 187.74h25.73V91.55h-23.58v59.28h-.27l-33.41-59.28h-25.73v96.19zm95.85 0h78.01v-21.55h-52.95v-18.33h47.16v-19.4h-47.16v-16.84h51.6V91.55h-76.66v96.19zm176.97-61.84c-.67-23.17-23.04-36.37-43.92-36.37-29.24 0-47.96 22.23-47.96 50.12 0 27.88 18.72 50.11 47.96 50.11 24.38 0 42.44-14.41 43.92-39.34h-25.06c-.94 11.19-7.54 17.79-19.4 17.79-16.17 0-22.36-14.15-22.36-28.56 0-14.42 6.19-28.57 22.36-28.57 10.64 0 17.92 5.12 19.4 14.82h25.06zm85.35-34.35h-82.45v21.55h28.69v74.64h25.06V113.1h28.7V91.55z" class="fil1"/><path d="M811.83 0H1250v79.86H811.83z" style="fill:#fa6e36"/><path d="M828.58 66.11h41.35V54.68h-28.06v-9.71h24.99V34.68h-24.99v-8.93h27.35V15.11h-40.64v51zm43.75-17.14c0 13.06 10.49 18.21 22.14 18.21 11.21 0 22.21-4.15 22.21-17.07 0-9.22-7.43-12.64-14.79-14.71-7.42-2.08-14.78-2.72-14.78-6.72 0-3.35 3.57-4.35 6.43-4.35 4 0 8.43 1.57 8.21 6.14h13.28c0-11.43-10.35-16.43-20.42-16.43-9.57 0-20.78 4.36-20.78 15.5 0 9.43 7.71 12.64 14.92 14.71 7.36 2.07 14.64 2.86 14.64 7.43 0 3.78-4.14 5.21-8.14 5.21-5.71 0-9.35-1.93-9.64-7.92h-13.28zm61.59-23.22h8.93c4.07 0 7.14 1.86 7.14 6.72 0 4.64-2.93 6.35-7.14 6.35h-8.93V25.75zm-13.28 40.36h13.28v-17h10.93c11.21 0 18.43-4.93 18.43-17.57 0-12.07-8.93-16.43-18.43-16.43h-24.21v51zm60.45-22c1.08-.07 2.15-.14 3.22-.14 4.86 0 8.85 1.28 8.85 6.78 0 4.29-3.92 6.14-8.07 6.14-6.07 0-9.07-2.93-8.92-8.85h-11.36c-.78 12.78 8.79 18.71 20.36 18.71 9.92 0 20.13-4.79 20.13-16 0-5.93-2.78-9.93-8.49-11.43v-.14c4.57-.78 6.92-5.36 6.92-9.71 0-10.14-9.92-13.79-18.56-13.79-10.57 0-18.79 5.79-19 16.93h11.35c-.07-4.57 2.79-7.07 7.72-7.07 4 0 7.14 1.78 7.14 5 0 4.28-4.43 5.21-8.07 5.21-1.07.07-2.14-.14-3.22-.07v8.43zm66.6 22V55.82h-23.64c3.29-3.14 5.14-4.43 9-6.71 7.29-4.57 14.14-8 14.14-17.64 0-10.64-8.78-15.79-18.64-15.79-12.35 0-20.35 8.36-19.57 20.72h11.36c0-5.43 1.85-10.07 8.28-10.07 3.93 0 6.43 2.28 6.43 6.21 0 3.35-2.71 5.78-6.5 8.28-3.93 2.5-8.71 5-13 8.72-4.92 4.28-7.71 10.21-7.78 16.57h39.92zm76.99-32.79c-.36-12.28-12.21-19.28-23.28-19.28-15.5 0-25.43 11.79-25.43 26.57 0 14.78 9.93 26.57 25.43 26.57 12.92 0 22.49-7.65 23.28-20.86h-13.28c-.5 5.93-4 9.43-10.29 9.43-8.57 0-11.85-7.5-11.85-15.14 0-7.64 3.28-15.14 11.85-15.14 5.64 0 9.5 2.71 10.29 7.85h13.28zm-.39 32.79h13.64l3.21-9.15h17.78l3.15 9.15h13.85l-19.07-51h-13.5l-19.06 51zM1150 29.25h.14l5.64 17.86h-11.57l5.79-17.86zm27.6 36.86h12.5V27.4h.14l10.71 38.71h10.14l10.72-38.71h.14v38.71h12.5v-51h-19.57l-8.79 34h-.14l-8.78-34h-19.57v51z" class="fil1"/></g></svg>